<svg width="529" height="233" viewBox="0 0 529 233" fill="none" xmlns="http://www.w3.org/2000/svg">
<path fill-rule="evenodd" clip-rule="evenodd" d="M234.625 -366.206C302.012 -382.607 379.349 -373.969 434.728 -332.218C489.788 -290.707 508.207 -217.663 521.42 -149.986C533.333 -88.969 530.679 -25.6521 505.696 31.2757C482.32 84.5405 434.851 119.825 387.925 154.198C340.804 188.715 292.715 223.719 234.625 229.833C172.35 236.388 102.417 231.104 55.9384 189.141C10.6194 148.225 7.28183 79.8049 1.16503 19.0554C-3.83417 -30.5946 7.88465 -78.0152 24.2936 -125.141C40.3433 -171.235 62.5684 -212.673 94.6569 -249.45C135.603 -296.38 174.11 -351.478 234.625 -366.206Z" fill="#1D1D1D"/>
</svg>
