<svg width="300" height="459" viewBox="0 0 300 459" fill="none" xmlns="http://www.w3.org/2000/svg">
<path fill-rule="evenodd" clip-rule="evenodd" d="M259.624 -129.842C319.27 -133.33 365.695 -78.5162 406.357 -34.7402C440.824 2.36615 444.622 55.4808 471.586 98.3501C512.308 163.09 625.654 205.755 603.713 279.022C581.995 351.548 462.431 319.063 395.117 353.711C343.515 380.272 316.909 446.827 259.624 456.133C199.048 465.974 132.25 446.009 87.8649 403.627C45.4183 363.095 48.5915 297.386 33.8766 240.571C20.2879 188.103 -12.742 135.695 5.22921 84.5631C23.1025 33.7096 83.6357 16.4618 124.853 -18.2759C170.565 -56.8024 199.944 -126.351 259.624 -129.842Z" fill="#A6A6A6"/>
</svg>
